<?xml version="1.0" standalone="no"?>
<!DOCTYPE svg PUBLIC "-//W3C//DTD SVG 20010904//EN"
 "http://www.w3.org/TR/2001/REC-SVG-20010904/DTD/svg10.dtd">
<svg version="1.0" xmlns="http://www.w3.org/2000/svg"
 width="960.000000pt" height="960.000000pt" viewBox="0 0 960.000000 960.000000"
 preserveAspectRatio="xMidYMid meet">
<metadata>
Created by potrace 1.11, written by Peter Selinger 2001-2013
</metadata>
<g transform="translate(0.000000,960.000000) scale(0.100000,-0.100000)"
fill="#000000" stroke="none">
<path d="M3354 7667 c-2 -7 -3 -91 -2 -187 l3 -175 608 -3 607 -2 0 -170 0
-170 -967 -2 -968 -3 -3 -182 -2 -183 -35 0 c-28 0 -35 -4 -35 -20 0 -16 -7
-20 -35 -20 l-35 0 0 -84 c0 -258 43 -765 116 -1362 22 -188 24 -235 24 -668
l0 -466 -103 117 c-90 103 -565 630 -634 705 l-25 27 67 128 c76 142 182 321
328 550 53 84 97 154 97 157 0 2 -14 13 -32 24 -23 15 -36 18 -45 11 -9 -8
-23 14 -58 88 -125 264 -232 555 -296 795 -31 120 -34 127 -55 122 -18 -5 -23
-1 -26 18 -2 19 -10 23 -45 26 -38 3 -43 1 -43 -18 0 -19 -4 -21 -29 -15 -19
4 -32 2 -37 -6 -38 -62 -53 -1711 -21 -2274 31 -539 72 -961 93 -969 22 -8 84
6 84 20 0 8 15 14 38 16 43 4 42 -27 13 268 -25 249 -48 541 -57 710 l-6 125
30 -30 c52 -52 531 -584 649 -721 l113 -132 2 -543 3 -544 527 -5 527 -5 -344
-346 c-190 -191 -345 -352 -345 -358 0 -8 102 -11 361 -11 l361 0 361 360 362
360 355 0 356 0 362 -360 361 -360 361 0 c272 0 360 3 360 12 0 7 -155 167
-345 357 l-345 346 528 5 527 5 3 513 c1 283 6 512 10 510 4 -2 20 -10 36 -18
27 -14 30 -13 50 13 18 22 24 25 35 15 10 -11 15 -9 27 7 40 52 41 51 -61 117
l-95 63 0 488 c0 283 4 487 9 487 8 0 31 52 31 70 0 4 -9 10 -20 13 -20 5 -20
14 -20 456 l0 451 26 -12 c24 -11 29 -10 50 17 19 25 25 27 39 15 13 -11 18
-10 30 6 39 49 38 51 -17 92 -29 21 -70 50 -90 63 l-38 24 -2 470 -3 470
-1007 3 -1008 2 0 170 0 170 648 2 647 3 0 185 0 185 -1443 3 c-1170 2 -1444
0 -1448 -11z m-1382 -1762 c25 -60 69 -159 97 -218 44 -94 53 -108 70 -102 15
4 -11 -44 -92 -173 -62 -98 -137 -223 -167 -276 l-55 -97 -8 138 c-9 149 -1
1021 10 1074 5 28 11 18 53 -102 25 -74 67 -183 92 -244z m2032 258 c3 -32 13
-128 21 -213 44 -452 128 -982 216 -1374 16 -70 29 -130 29 -132 0 -2 -33 -4
-74 -4 l-74 0 -35 68 c-50 95 -137 291 -360 813 -107 250 -231 534 -276 632
-62 137 -81 189 -81 223 l0 44 314 0 314 0 6 -57z m606 -182 l0 -238 -50 -119
c-41 -95 -57 -123 -83 -139 -17 -11 -33 -27 -35 -36 -1 -9 36 -58 82 -110 l86
-94 0 -402 0 -403 -84 0 c-79 0 -84 1 -89 23 -103 477 -148 720 -196 1054 -25
170 -81 652 -81 693 0 6 77 10 225 10 l225 0 0 -239z m784 137 c3 -57 10 -191
16 -298 20 -363 65 -819 115 -1180 14 -96 25 -181 25 -187 0 -9 -16 -13 -48
-13 l-48 0 -45 67 c-63 97 -238 330 -336 450 l-83 102 0 580 0 581 199 0 199
0 6 -102z m836 -107 l0 -209 -97 -57 c-141 -84 -335 -212 -433 -288 -47 -36
-88 -63 -91 -59 -10 11 -57 658 -59 805 0 16 23 17 340 17 l340 0 0 -209z
m-2637 -801 c113 -261 235 -540 271 -619 36 -80 66 -146 66 -148 0 -2 -126 -3
-280 -3 l-280 0 0 638 c0 368 4 631 9 622 5 -8 101 -229 214 -490z m2637 -145
l0 -625 -252 2 -253 3 -17 120 c-22 149 -88 670 -88 691 0 8 6 14 13 12 7 -2
50 29 97 67 47 39 104 86 128 104 39 30 364 251 370 251 1 0 2 -281 2 -625z
m-1060 -512 l80 -113 -130 0 -130 0 0 177 0 177 50 -65 c28 -35 86 -115 130
-176z m-1667 -882 c65 -28 141 -103 174 -170 24 -49 27 -68 28 -151 0 -84 -3
-101 -28 -150 -39 -75 -98 -133 -171 -167 -52 -24 -74 -28 -146 -28 -71 0 -94
4 -142 27 -76 35 -138 95 -173 165 -27 52 -29 68 -29 153 0 75 5 105 22 142
20 46 96 138 113 138 4 0 13 -18 19 -40 10 -37 13 -40 38 -34 15 4 38 12 52
19 14 7 38 15 54 19 26 6 28 10 23 39 -3 18 -9 41 -13 51 -7 18 -3 19 62 14
38 -3 90 -15 117 -27z m2880 1 c65 -29 141 -104 174 -171 24 -49 27 -68 28
-151 0 -84 -3 -101 -28 -150 -39 -75 -98 -133 -171 -167 -52 -24 -74 -28 -146
-28 -71 0 -94 4 -142 27 -76 35 -142 98 -175 167 -24 49 -27 67 -27 151 0 110
18 162 80 230 49 54 83 77 147 101 68 26 191 21 260 -9z"/>
<path d="M1597 6765 c-15 -13 -33 -22 -40 -19 -17 6 -395 -310 -470 -393 -12
-14 -32 -23 -49 -23 -23 0 -28 -4 -28 -26 0 -19 -28 -55 -104 -137 -141 -151
-255 -289 -256 -308 0 -8 14 -26 32 -39 l31 -23 22 25 c11 13 26 23 32 21 6
-2 43 33 81 79 39 46 91 106 116 133 l45 50 0 -35 c1 -64 -19 -481 -39 -815
-50 -837 -60 -1089 -60 -1516 l0 -429 39 0 c22 0 46 7 55 15 8 8 27 15 43 15
l28 0 0 428 c1 426 4 515 50 1287 26 437 40 735 51 1037 l6 187 82 78 c44 43
156 143 249 222 92 79 167 146 167 150 -1 6 -47 61 -52 61 -2 0 -15 -12 -31
-25z"/>
<path d="M7370 6765 c0 -10 -11 -15 -35 -15 l-35 0 0 -48 c0 -36 -5 -54 -20
-67 -20 -18 -20 -19 -1 -39 17 -19 20 -48 30 -311 28 -716 81 -1296 226 -2442
41 -326 75 -597 75 -602 0 -16 76 -13 93 3 8 8 27 16 43 18 25 3 29 7 27 33
-1 17 -43 356 -93 754 -49 398 -90 733 -90 744 0 19 4 17 38 -14 20 -20 93
-82 162 -139 293 -242 411 -378 785 -907 83 -117 154 -213 159 -213 5 0 18 8
28 17 10 9 28 17 41 19 31 3 30 3 55 24 l23 19 -162 228 c-366 515 -493 660
-779 897 -85 71 -178 151 -207 179 l-52 50 52 76 c28 42 123 175 211 295 87
121 191 269 229 329 77 121 167 290 166 310 0 6 -51 37 -112 67 -218 107 -435
269 -650 486 l-117 118 0 73 0 73 -45 0 c-33 0 -45 -4 -45 -15z m377 -622
c108 -83 235 -164 334 -213 35 -18 66 -34 68 -36 6 -6 -58 -122 -126 -227 -34
-53 -134 -195 -221 -315 -87 -119 -176 -244 -198 -276 l-39 -59 -7 59 c-33
297 -75 852 -84 1118 l-7 190 91 -83 c50 -46 135 -117 189 -158z"/>
</g>
</svg>
